<?xml version="1.0" standalone="no"?>
<!DOCTYPE svg PUBLIC "-//W3C//DTD SVG 20010904//EN"
 "http://www.w3.org/TR/2001/REC-SVG-20010904/DTD/svg10.dtd">
<svg version="1.0" xmlns="http://www.w3.org/2000/svg"
 width="150.000000pt" height="150.000000pt" viewBox="0 0 150.000000 150.000000"
 preserveAspectRatio="xMidYMid meet">
<metadata>
Created by potrace 1.14, written by Peter Selinger 2001-2017
</metadata>
<g transform="translate(0.000000,150.000000) scale(0.100000,-0.100000)"
fill="#000000" stroke="none">
<path d="M0 750 l0 -750 619 0 620 0 4 23 4 22 2 -22 c1 -21 6 -23 51 -23 45
0 50 2 51 23 l0 22 9 -22 c10 -24 60 -34 60 -12 0 8 4 8 14 0 13 -11 14 -10
30 39 1 3 7 14 13 25 12 19 12 19 13 -3 0 -13 -7 -30 -15 -38 -21 -21 -19 -34
5 -34 19 0 19 12 20 750 l0 750 -750 0 -750 0 0 -750z m834 24 c9 -3 16 -15
16 -26 0 -10 -5 -16 -10 -13 -6 4 -8 11 -5 16 6 9 -8 13 -32 10 -7 -1 -13 3
-13 9 0 11 20 13 44 4z m-14 -44 c0 -5 -2 -10 -4 -10 -3 0 -8 5 -11 10 -3 6
-1 10 4 10 6 0 11 -4 11 -10z m327 -422 c-3 -8 -6 -5 -6 6 -1 11 2 17 5 13 3
-3 4 -12 1 -19z m90 -80 c-3 -8 -6 -5 -6 6 -1 11 2 17 5 13 3 -3 4 -12 1 -19z
m-15 -95 c-8 -13 -9 -9 -7 18 6 60 8 65 12 32 2 -18 0 -40 -5 -50z m194 12
c-9 -13 -16 -31 -16 -40 0 -8 -4 -15 -10 -15 -5 0 -10 6 -10 14 0 8 5 18 10
21 6 3 10 11 10 16 0 6 -5 7 -11 3 -7 -4 -7 1 1 16 10 18 14 20 21 9 7 -11 9
-9 10 6 0 11 3 14 6 7 3 -7 -2 -24 -11 -37z m24 -35 c-7 -22 -17 -40 -21 -40
-8 0 -6 11 13 63 16 42 23 22 8 -23z m-270 30 c0 -5 -5 -10 -11 -10 -5 0 -7 5
-4 10 3 6 8 10 11 10 2 0 4 -4 4 -10z m281 -61 c-9 -22 -10 -22 -10 -3 -1 11
2 24 6 27 12 12 14 0 4 -24z m-234 -56 c-3 -10 -5 -5 -5 12 0 17 2 24 5 18 2
-7 2 -21 0 -30z m-497 7 c0 -23 -25 -27 -33 -6 -7 16 1 26 20 26 7 0 13 -9 13
-20z m677 -12 c-3 -8 -6 -5 -6 6 -1 11 2 17 5 13 3 -3 4 -12 1 -19z"/>
</g>
</svg>
